<svg width="40" height="36" viewBox="0 0 40 36" fill="none" xmlns="http://www.w3.org/2000/svg">
<path d="M16.0061 36H0.0102406V18.8411C-0.0648574 16.3738 0.273084 14.0561 1.02407 11.8878C1.85014 9.71963 2.97662 7.81308 4.40348 6.16822C5.83035 4.52336 7.52005 3.17757 9.47261 2.13084C11.5003 1.00935 13.6781 0.299066 16.0061 0V7.40187C13.1524 8.37383 11.1999 9.83177 10.1485 11.7757C9.09712 13.6449 8.57143 15.9626 8.57143 18.729H16.0061V36ZM40 36H24.0041V18.8411C23.929 16.3738 24.2669 14.0561 25.0179 11.8878C25.844 9.71963 26.9705 7.81308 28.3973 6.16822C29.8242 4.52336 31.5139 3.17757 33.4665 2.13084C35.4941 1.00935 37.672 0.299066 40 0V7.40187C37.1463 8.37383 35.1937 9.83177 34.1423 11.7757C33.091 13.6449 32.5653 15.9626 32.5653 18.729H40V36Z" fill="#E4E4E4"/>
</svg>
