<svg width="480" height="480" viewBox="0 0 480 480" fill="none" xmlns="http://www.w3.org/2000/svg">
<rect width="480" height="480" fill="#F3F3F3"/>
<path d="M272.248 169.711C276.011 166.022 282.053 166.081 285.742 169.844L349.034 234.388C352.723 238.151 352.664 244.193 348.901 247.882L284.357 311.174C280.594 314.863 274.552 314.804 270.862 311.041C267.173 307.279 267.232 301.237 270.995 297.547L319.091 250.384L137.225 248.601C131.955 248.549 127.725 244.236 127.777 238.966C127.829 233.697 132.143 229.467 137.412 229.518L319.278 231.301L318.429 230.436L272.116 183.206C268.426 179.443 268.485 173.401 272.248 169.711Z" stroke="#BDBDBD" stroke-width="1.00442"/>
</svg>
