<svg width="1680" height="240" viewBox="0 0 1680 240" fill="none" xmlns="http://www.w3.org/2000/svg">
    <g id="banner" clip-path="url(#clip0_1478_118628)">


        <g>
            <circle id="bg left" cx="265.5" cy="141.5" r="305.5" fill="#DAEAEB" fill-opacity="0.3" />
            <animateTransform
                attributeName="transform"
                attributeType="XML"
                type="translate"
                dur="20s"
                values="0,0;-55,80;0,0"
                repeatCount="indefinite"
            />
        </g>
        <g>
            <circle id="bg right" cx="1400.5" cy="-0.5" r="305.5" fill="#DAEAEB" fill-opacity="0.3" />
            <animateTransform
                attributeName="transform"
                attributeType="XML"
                type="translate"
                dur="20s"
                values="0,0;55,-80;0,0"
                repeatCount="indefinite"
            />
        </g>

        <g>
            <rect id="lightleft" x="-170" y="106.79" width="386.493" height="322.643" rx="113.431"
                transform="rotate(-8 -170 106.79)" fill="#DAEAEB" fill-opacity="0.7" />
                <animateTransform
                attributeName="transform"
                attributeType="XML"
                type="translate"
                dur="20s"
                values="0,0;-55,10;0,0"
                repeatCount="indefinite"
            />
        </g>
        <g>
            <rect id="lightright" x="1490.16" y="-180" width="463.491" height="463.432" rx="113.431"
                transform="rotate(28.3632 1490.16 -180)" fill="#DAEAEB" fill-opacity="0.7"/>
                <animateTransform
                attributeName="transform"
                attributeType="XML"
                type="translate"
                dur="20s"
                values="0,0;-10,100;0,0"
                repeatCount="indefinite"
            />
        </g>
        <g>
            <circle id="darkright" cx="1584" cy="-25" r="228" fill="#B3DADC" fill-opacity="0.85" />
            <animateTransform
                attributeName="transform"
                attributeType="XML"
                type="translate"
                dur="20s"
                values="0,0;-20,-40;0,0"
                repeatCount="indefinite"
            />
        </g>
        <g>
            <circle id="darkleft" cx="509" cy="-57" r="228" fill="#B3DADC" fill-opacity="0.85" />
            <animateTransform
            attributeName="transform"
            attributeType="XML"
            type="translate"
            dur="20s"
            values="0,0;-10,-30;0,0"
            repeatCount="indefinite"
        />
        </g>

        <g id="search" filter="url(#filter0_d_1478_118628)">
            <path fill-rule="evenodd" clip-rule="evenodd"
                d="M1132.11 95.498C1126.47 98.8293 1119.89 100.741 1112.87 100.741C1091.96 100.741 1075 83.7858 1075 62.8705C1075 41.9552 1091.96 25 1112.87 25C1133.79 25 1150.74 41.9552 1150.74 62.8705C1150.74 69.8939 1148.83 76.4707 1145.5 82.109L1162.51 99.1175C1166.2 102.815 1166.2 108.809 1162.51 112.507C1158.81 116.204 1152.81 116.204 1149.12 112.507L1132.11 95.498ZM1131.81 62.8705C1131.81 73.3282 1123.33 81.8058 1112.87 81.8058C1102.41 81.8058 1093.94 73.3282 1093.94 62.8705C1093.94 52.4129 1102.41 43.9353 1112.87 43.9353C1123.33 43.9353 1131.81 52.4129 1131.81 62.8705Z"
                fill="#D1F4F0" />
            <path
                d="M1132.94 94.6611L1132.3 94.0123L1131.51 94.4791C1126.05 97.7057 1119.68 99.5575 1112.87 99.5575C1092.61 99.5575 1076.18 83.1322 1076.18 62.8705C1076.18 42.6088 1092.61 26.1835 1112.87 26.1835C1133.13 26.1835 1149.56 42.6088 1149.56 62.8705C1149.56 69.6763 1147.71 76.046 1144.48 81.5069L1144.01 82.2969L1144.66 82.9458L1161.67 99.9543C1164.9 103.189 1164.9 108.435 1161.67 111.67C1158.43 114.905 1153.19 114.905 1149.95 111.67L1132.94 94.6611ZM1112.87 82.9892C1123.98 82.9892 1132.99 73.9818 1132.99 62.8705C1132.99 51.7593 1123.98 42.7518 1112.87 42.7518C1101.76 42.7518 1092.75 51.7593 1092.75 62.8705C1092.75 73.9818 1101.76 82.9892 1112.87 82.9892Z"
                stroke="black" stroke-width="2.36691" />

            <animateTransform
                attributeName="transform"
                attributeType="XML"
                type="translate"
                dur="10s"
                values="0,0;25,10;0,0"
                repeatCount="indefinite"
            />
        </g>

        <g id="DESIGNER" filter="url(#filter1_d_1478_118628)">
            <mask id="path-9-outside-1_1478_118628" maskUnits="userSpaceOnUse" x="884.977"
                y="144.248" width="331" height="54" fill="black">
                <rect fill="white" x="884.977" y="144.248" width="331" height="54" />
                <path
                    d="M887.977 151.236H900.985V191H887.977V151.236ZM903.598 191H896.611V180.207H903.03C904.128 180.207 905.246 180.112 906.382 179.923C907.518 179.733 908.559 179.336 909.506 178.73C910.453 178.124 911.21 177.215 911.778 176.003C912.384 174.791 912.687 173.163 912.687 171.118C912.687 169.073 912.384 167.444 911.778 166.232C911.21 165.021 910.453 164.112 909.506 163.506C908.559 162.9 907.518 162.502 906.382 162.313C905.246 162.124 904.128 162.029 903.03 162.029H896.611V151.236H903.598C908.218 151.236 912.176 152.031 915.471 153.622C918.803 155.212 921.34 157.484 923.083 160.438C924.862 163.392 925.752 166.952 925.752 171.118C925.752 175.246 924.862 178.805 923.083 181.797C921.34 184.751 918.803 187.023 915.471 188.614C912.176 190.205 908.218 191 903.598 191Z" />
                <path
                    d="M942.888 191V181.059H962.94V191H942.888ZM942.888 161.177V151.236H962.94V161.177H942.888ZM942.888 175.378V165.721H961.804V175.378H942.888ZM934.253 151.236H946.182V191H934.253V151.236Z" />
                <path
                    d="M979.287 175.889C980.044 177.215 980.915 178.37 981.9 179.355C982.885 180.301 983.945 181.021 985.081 181.513C986.255 182.006 987.429 182.252 988.603 182.252C989.588 182.252 990.421 182.062 991.103 181.684C991.784 181.267 992.125 180.623 992.125 179.752C992.125 179.222 991.936 178.768 991.557 178.389C991.216 178.01 990.516 177.575 989.455 177.082C988.395 176.59 986.785 175.927 984.627 175.094C983.68 174.715 982.582 174.204 981.332 173.56C980.12 172.917 978.946 172.083 977.81 171.061C976.712 170.038 975.784 168.789 975.026 167.312C974.307 165.835 973.947 164.093 973.947 162.086C973.947 159.473 974.648 157.276 976.049 155.496C977.45 153.716 979.306 152.372 981.616 151.463C983.926 150.554 986.463 150.1 989.228 150.1C992.22 150.1 994.776 150.554 996.897 151.463C999.055 152.372 1000.82 153.508 1002.18 154.871C1003.58 156.235 1004.64 157.598 1005.36 158.961L996.101 164.074C995.496 163.127 994.814 162.389 994.056 161.858C993.337 161.29 992.598 160.874 991.841 160.609C991.084 160.344 990.345 160.211 989.626 160.211C988.755 160.211 988.035 160.363 987.467 160.666C986.937 160.968 986.672 161.442 986.672 162.086C986.672 162.881 987.05 163.544 987.808 164.074C988.603 164.566 989.645 165.04 990.932 165.494C992.22 165.911 993.64 166.403 995.193 166.971C996.783 167.539 998.203 168.221 999.453 169.016C1000.7 169.773 1001.76 170.663 1002.63 171.686C1003.54 172.708 1004.22 173.863 1004.68 175.151C1005.13 176.401 1005.36 177.802 1005.36 179.355C1005.36 181.551 1004.91 183.501 1004 185.206C1003.09 186.872 1001.86 188.254 1000.31 189.352C998.79 190.451 997.067 191.284 995.136 191.852C993.204 192.42 991.216 192.704 989.171 192.704C986.331 192.704 983.68 192.231 981.218 191.284C978.795 190.375 976.693 189.106 974.913 187.478C973.133 185.849 971.789 184.032 970.88 182.024L979.287 175.889Z" />
                <path d="M1014.16 151.236H1026.94V191H1014.16V151.236Z" />
                <path
                    d="M1058.2 177.366V168.277H1079.33C1079.63 171.686 1079.37 174.867 1078.53 177.821C1077.74 180.775 1076.43 183.369 1074.61 185.603C1072.8 187.838 1070.5 189.58 1067.74 190.829C1064.98 192.079 1061.79 192.704 1058.2 192.704C1054.86 192.704 1051.82 192.193 1049.05 191.17C1046.29 190.148 1043.88 188.69 1041.84 186.796C1039.83 184.903 1038.26 182.63 1037.12 179.979C1036.02 177.329 1035.47 174.375 1035.47 171.118C1035.47 167.861 1036.06 164.945 1037.24 162.37C1038.41 159.757 1040.04 157.541 1042.12 155.723C1044.24 153.906 1046.7 152.523 1049.51 151.577C1052.35 150.592 1055.43 150.1 1058.76 150.1C1061.79 150.1 1064.46 150.554 1066.77 151.463C1069.12 152.372 1071.17 153.584 1072.91 155.099C1074.69 156.575 1076.24 158.242 1077.57 160.097L1065.92 165.324C1065.24 164.074 1064.35 162.976 1063.25 162.029C1062.15 161.082 1060.66 160.609 1058.76 160.609C1056.91 160.609 1055.2 161.006 1053.65 161.802C1052.1 162.559 1050.85 163.714 1049.9 165.267C1048.99 166.819 1048.54 168.77 1048.54 171.118C1048.54 173.428 1048.96 175.416 1049.79 177.082C1050.66 178.749 1051.85 180.017 1053.37 180.888C1054.92 181.759 1056.72 182.195 1058.76 182.195C1059.9 182.195 1060.92 182.081 1061.83 181.854C1062.74 181.627 1063.52 181.305 1064.16 180.888C1064.84 180.472 1065.43 179.961 1065.92 179.355C1066.41 178.749 1066.83 178.086 1067.17 177.366H1058.2Z" />
                <path
                    d="M1114.03 151.236H1125.96V192.988L1100.11 172.992V191H1088.18V149.248L1114.03 169.243V151.236Z" />
                <path
                    d="M1145.37 191V181.059H1165.42V191H1145.37ZM1145.37 161.177V151.236H1165.42V161.177H1145.37ZM1145.37 175.378V165.721H1164.29V175.378H1145.37ZM1136.73 151.236H1148.66V191H1136.73V151.236Z" />
                <path
                    d="M1187.28 173.958H1200.06L1211.42 191H1196.94L1187.28 173.958ZM1175.63 151.236H1188.13V191H1175.63V151.236ZM1183.7 161.745V151.236H1192.39C1196.29 151.236 1199.45 151.823 1201.88 152.997C1204.34 154.171 1206.14 155.78 1207.27 157.825C1208.45 159.87 1209.04 162.218 1209.04 164.869C1209.04 167.482 1208.45 169.83 1207.27 171.913C1206.14 173.958 1204.34 175.568 1201.88 176.742C1199.45 177.916 1196.29 178.503 1192.39 178.503H1183.7V169.13H1191.25C1192.32 169.13 1193.19 168.997 1193.87 168.732C1194.55 168.429 1195.06 167.993 1195.4 167.425C1195.78 166.857 1195.97 166.195 1195.97 165.437C1195.97 164.642 1195.78 163.979 1195.4 163.449C1195.06 162.881 1194.55 162.464 1193.87 162.199C1193.19 161.896 1192.32 161.745 1191.25 161.745H1183.7Z" />
            </mask>
            <path
                d="M887.977 151.236H900.985V191H887.977V151.236ZM903.598 191H896.611V180.207H903.03C904.128 180.207 905.246 180.112 906.382 179.923C907.518 179.733 908.559 179.336 909.506 178.73C910.453 178.124 911.21 177.215 911.778 176.003C912.384 174.791 912.687 173.163 912.687 171.118C912.687 169.073 912.384 167.444 911.778 166.232C911.21 165.021 910.453 164.112 909.506 163.506C908.559 162.9 907.518 162.502 906.382 162.313C905.246 162.124 904.128 162.029 903.03 162.029H896.611V151.236H903.598C908.218 151.236 912.176 152.031 915.471 153.622C918.803 155.212 921.34 157.484 923.083 160.438C924.862 163.392 925.752 166.952 925.752 171.118C925.752 175.246 924.862 178.805 923.083 181.797C921.34 184.751 918.803 187.023 915.471 188.614C912.176 190.205 908.218 191 903.598 191Z"
                fill="white" />
            <path
                d="M942.888 191V181.059H962.94V191H942.888ZM942.888 161.177V151.236H962.94V161.177H942.888ZM942.888 175.378V165.721H961.804V175.378H942.888ZM934.253 151.236H946.182V191H934.253V151.236Z"
                fill="white" />
            <path
                d="M979.287 175.889C980.044 177.215 980.915 178.37 981.9 179.355C982.885 180.301 983.945 181.021 985.081 181.513C986.255 182.006 987.429 182.252 988.603 182.252C989.588 182.252 990.421 182.062 991.103 181.684C991.784 181.267 992.125 180.623 992.125 179.752C992.125 179.222 991.936 178.768 991.557 178.389C991.216 178.01 990.516 177.575 989.455 177.082C988.395 176.59 986.785 175.927 984.627 175.094C983.68 174.715 982.582 174.204 981.332 173.56C980.12 172.917 978.946 172.083 977.81 171.061C976.712 170.038 975.784 168.789 975.026 167.312C974.307 165.835 973.947 164.093 973.947 162.086C973.947 159.473 974.648 157.276 976.049 155.496C977.45 153.716 979.306 152.372 981.616 151.463C983.926 150.554 986.463 150.1 989.228 150.1C992.22 150.1 994.776 150.554 996.897 151.463C999.055 152.372 1000.82 153.508 1002.18 154.871C1003.58 156.235 1004.64 157.598 1005.36 158.961L996.101 164.074C995.496 163.127 994.814 162.389 994.056 161.858C993.337 161.29 992.598 160.874 991.841 160.609C991.084 160.344 990.345 160.211 989.626 160.211C988.755 160.211 988.035 160.363 987.467 160.666C986.937 160.968 986.672 161.442 986.672 162.086C986.672 162.881 987.05 163.544 987.808 164.074C988.603 164.566 989.645 165.04 990.932 165.494C992.22 165.911 993.64 166.403 995.193 166.971C996.783 167.539 998.203 168.221 999.453 169.016C1000.7 169.773 1001.76 170.663 1002.63 171.686C1003.54 172.708 1004.22 173.863 1004.68 175.151C1005.13 176.401 1005.36 177.802 1005.36 179.355C1005.36 181.551 1004.91 183.501 1004 185.206C1003.09 186.872 1001.86 188.254 1000.31 189.352C998.79 190.451 997.067 191.284 995.136 191.852C993.204 192.42 991.216 192.704 989.171 192.704C986.331 192.704 983.68 192.231 981.218 191.284C978.795 190.375 976.693 189.106 974.913 187.478C973.133 185.849 971.789 184.032 970.88 182.024L979.287 175.889Z"
                fill="white" />
            <path d="M1014.16 151.236H1026.94V191H1014.16V151.236Z" fill="white" />
            <path
                d="M1058.2 177.366V168.277H1079.33C1079.63 171.686 1079.37 174.867 1078.53 177.821C1077.74 180.775 1076.43 183.369 1074.61 185.603C1072.8 187.838 1070.5 189.58 1067.74 190.829C1064.98 192.079 1061.79 192.704 1058.2 192.704C1054.86 192.704 1051.82 192.193 1049.05 191.17C1046.29 190.148 1043.88 188.69 1041.84 186.796C1039.83 184.903 1038.26 182.63 1037.12 179.979C1036.02 177.329 1035.47 174.375 1035.47 171.118C1035.47 167.861 1036.06 164.945 1037.24 162.37C1038.41 159.757 1040.04 157.541 1042.12 155.723C1044.24 153.906 1046.7 152.523 1049.51 151.577C1052.35 150.592 1055.43 150.1 1058.76 150.1C1061.79 150.1 1064.46 150.554 1066.77 151.463C1069.12 152.372 1071.17 153.584 1072.91 155.099C1074.69 156.575 1076.24 158.242 1077.57 160.097L1065.92 165.324C1065.24 164.074 1064.35 162.976 1063.25 162.029C1062.15 161.082 1060.66 160.609 1058.76 160.609C1056.91 160.609 1055.2 161.006 1053.65 161.802C1052.1 162.559 1050.85 163.714 1049.9 165.267C1048.99 166.819 1048.54 168.77 1048.54 171.118C1048.54 173.428 1048.96 175.416 1049.79 177.082C1050.66 178.749 1051.85 180.017 1053.37 180.888C1054.92 181.759 1056.72 182.195 1058.76 182.195C1059.9 182.195 1060.92 182.081 1061.83 181.854C1062.74 181.627 1063.52 181.305 1064.16 180.888C1064.84 180.472 1065.43 179.961 1065.92 179.355C1066.41 178.749 1066.83 178.086 1067.17 177.366H1058.2Z"
                fill="white" />
            <path
                d="M1114.03 151.236H1125.96V192.988L1100.11 172.992V191H1088.18V149.248L1114.03 169.243V151.236Z"
                fill="white" />
            <path
                d="M1145.37 191V181.059H1165.42V191H1145.37ZM1145.37 161.177V151.236H1165.42V161.177H1145.37ZM1145.37 175.378V165.721H1164.29V175.378H1145.37ZM1136.73 151.236H1148.66V191H1136.73V151.236Z"
                fill="white" />
            <path
                d="M1187.28 173.958H1200.06L1211.42 191H1196.94L1187.28 173.958ZM1175.63 151.236H1188.13V191H1175.63V151.236ZM1183.7 161.745V151.236H1192.39C1196.29 151.236 1199.45 151.823 1201.88 152.997C1204.34 154.171 1206.14 155.78 1207.27 157.825C1208.45 159.87 1209.04 162.218 1209.04 164.869C1209.04 167.482 1208.45 169.83 1207.27 171.913C1206.14 173.958 1204.34 175.568 1201.88 176.742C1199.45 177.916 1196.29 178.503 1192.39 178.503H1183.7V169.13H1191.25C1192.32 169.13 1193.19 168.997 1193.87 168.732C1194.55 168.429 1195.06 167.993 1195.4 167.425C1195.78 166.857 1195.97 166.195 1195.97 165.437C1195.97 164.642 1195.78 163.979 1195.4 163.449C1195.06 162.881 1194.55 162.464 1193.87 162.199C1193.19 161.896 1192.32 161.745 1191.25 161.745H1183.7Z"
                fill="white" />
            <path
                d="M887.977 151.236H900.985V191H887.977V151.236ZM903.598 191H896.611V180.207H903.03C904.128 180.207 905.246 180.112 906.382 179.923C907.518 179.733 908.559 179.336 909.506 178.73C910.453 178.124 911.21 177.215 911.778 176.003C912.384 174.791 912.687 173.163 912.687 171.118C912.687 169.073 912.384 167.444 911.778 166.232C911.21 165.021 910.453 164.112 909.506 163.506C908.559 162.9 907.518 162.502 906.382 162.313C905.246 162.124 904.128 162.029 903.03 162.029H896.611V151.236H903.598C908.218 151.236 912.176 152.031 915.471 153.622C918.803 155.212 921.34 157.484 923.083 160.438C924.862 163.392 925.752 166.952 925.752 171.118C925.752 175.246 924.862 178.805 923.083 181.797C921.34 184.751 918.803 187.023 915.471 188.614C912.176 190.205 908.218 191 903.598 191Z"
                stroke="black" stroke-width="4.73381" mask="url(#path-9-outside-1_1478_118628)" />
            <path
                d="M942.888 191V181.059H962.94V191H942.888ZM942.888 161.177V151.236H962.94V161.177H942.888ZM942.888 175.378V165.721H961.804V175.378H942.888ZM934.253 151.236H946.182V191H934.253V151.236Z"
                stroke="black" stroke-width="4.73381" mask="url(#path-9-outside-1_1478_118628)" />
            <path
                d="M979.287 175.889C980.044 177.215 980.915 178.37 981.9 179.355C982.885 180.301 983.945 181.021 985.081 181.513C986.255 182.006 987.429 182.252 988.603 182.252C989.588 182.252 990.421 182.062 991.103 181.684C991.784 181.267 992.125 180.623 992.125 179.752C992.125 179.222 991.936 178.768 991.557 178.389C991.216 178.01 990.516 177.575 989.455 177.082C988.395 176.59 986.785 175.927 984.627 175.094C983.68 174.715 982.582 174.204 981.332 173.56C980.12 172.917 978.946 172.083 977.81 171.061C976.712 170.038 975.784 168.789 975.026 167.312C974.307 165.835 973.947 164.093 973.947 162.086C973.947 159.473 974.648 157.276 976.049 155.496C977.45 153.716 979.306 152.372 981.616 151.463C983.926 150.554 986.463 150.1 989.228 150.1C992.22 150.1 994.776 150.554 996.897 151.463C999.055 152.372 1000.82 153.508 1002.18 154.871C1003.58 156.235 1004.64 157.598 1005.36 158.961L996.101 164.074C995.496 163.127 994.814 162.389 994.056 161.858C993.337 161.29 992.598 160.874 991.841 160.609C991.084 160.344 990.345 160.211 989.626 160.211C988.755 160.211 988.035 160.363 987.467 160.666C986.937 160.968 986.672 161.442 986.672 162.086C986.672 162.881 987.05 163.544 987.808 164.074C988.603 164.566 989.645 165.04 990.932 165.494C992.22 165.911 993.64 166.403 995.193 166.971C996.783 167.539 998.203 168.221 999.453 169.016C1000.7 169.773 1001.76 170.663 1002.63 171.686C1003.54 172.708 1004.22 173.863 1004.68 175.151C1005.13 176.401 1005.36 177.802 1005.36 179.355C1005.36 181.551 1004.91 183.501 1004 185.206C1003.09 186.872 1001.86 188.254 1000.31 189.352C998.79 190.451 997.067 191.284 995.136 191.852C993.204 192.42 991.216 192.704 989.171 192.704C986.331 192.704 983.68 192.231 981.218 191.284C978.795 190.375 976.693 189.106 974.913 187.478C973.133 185.849 971.789 184.032 970.88 182.024L979.287 175.889Z"
                stroke="black" stroke-width="4.73381" mask="url(#path-9-outside-1_1478_118628)" />
            <path d="M1014.16 151.236H1026.94V191H1014.16V151.236Z" stroke="black"
                stroke-width="4.73381" mask="url(#path-9-outside-1_1478_118628)" />
            <path
                d="M1058.2 177.366V168.277H1079.33C1079.63 171.686 1079.37 174.867 1078.53 177.821C1077.74 180.775 1076.43 183.369 1074.61 185.603C1072.8 187.838 1070.5 189.58 1067.74 190.829C1064.98 192.079 1061.79 192.704 1058.2 192.704C1054.86 192.704 1051.82 192.193 1049.05 191.17C1046.29 190.148 1043.88 188.69 1041.84 186.796C1039.83 184.903 1038.26 182.63 1037.12 179.979C1036.02 177.329 1035.47 174.375 1035.47 171.118C1035.47 167.861 1036.06 164.945 1037.24 162.37C1038.41 159.757 1040.04 157.541 1042.12 155.723C1044.24 153.906 1046.7 152.523 1049.51 151.577C1052.35 150.592 1055.43 150.1 1058.76 150.1C1061.79 150.1 1064.46 150.554 1066.77 151.463C1069.12 152.372 1071.17 153.584 1072.91 155.099C1074.69 156.575 1076.24 158.242 1077.57 160.097L1065.92 165.324C1065.24 164.074 1064.35 162.976 1063.25 162.029C1062.15 161.082 1060.66 160.609 1058.76 160.609C1056.91 160.609 1055.2 161.006 1053.65 161.802C1052.1 162.559 1050.85 163.714 1049.9 165.267C1048.99 166.819 1048.54 168.77 1048.54 171.118C1048.54 173.428 1048.96 175.416 1049.79 177.082C1050.66 178.749 1051.85 180.017 1053.37 180.888C1054.92 181.759 1056.72 182.195 1058.76 182.195C1059.9 182.195 1060.92 182.081 1061.83 181.854C1062.74 181.627 1063.52 181.305 1064.16 180.888C1064.84 180.472 1065.43 179.961 1065.92 179.355C1066.41 178.749 1066.83 178.086 1067.17 177.366H1058.2Z"
                stroke="black" stroke-width="4.73381" mask="url(#path-9-outside-1_1478_118628)" />
            <path
                d="M1114.03 151.236H1125.96V192.988L1100.11 172.992V191H1088.18V149.248L1114.03 169.243V151.236Z"
                stroke="black" stroke-width="4.73381" mask="url(#path-9-outside-1_1478_118628)" />
            <path
                d="M1145.37 191V181.059H1165.42V191H1145.37ZM1145.37 161.177V151.236H1165.42V161.177H1145.37ZM1145.37 175.378V165.721H1164.29V175.378H1145.37ZM1136.73 151.236H1148.66V191H1136.73V151.236Z"
                stroke="black" stroke-width="4.73381" mask="url(#path-9-outside-1_1478_118628)" />
            <path
                d="M1187.28 173.958H1200.06L1211.42 191H1196.94L1187.28 173.958ZM1175.63 151.236H1188.13V191H1175.63V151.236ZM1183.7 161.745V151.236H1192.39C1196.29 151.236 1199.45 151.823 1201.88 152.997C1204.34 154.171 1206.14 155.78 1207.27 157.825C1208.45 159.87 1209.04 162.218 1209.04 164.869C1209.04 167.482 1208.45 169.83 1207.27 171.913C1206.14 173.958 1204.34 175.568 1201.88 176.742C1199.45 177.916 1196.29 178.503 1192.39 178.503H1183.7V169.13H1191.25C1192.32 169.13 1193.19 168.997 1193.87 168.732C1194.55 168.429 1195.06 167.993 1195.4 167.425C1195.78 166.857 1195.97 166.195 1195.97 165.437C1195.97 164.642 1195.78 163.979 1195.4 163.449C1195.06 162.881 1194.55 162.464 1193.87 162.199C1193.19 161.896 1192.32 161.745 1191.25 161.745H1183.7Z"
                stroke="black" stroke-width="4.73381" mask="url(#path-9-outside-1_1478_118628)" />

            <animateTransform
                attributeName="transform"
                attributeType="XML"
                type="translate"
                dur="15s"
                values="0,0;-10,15;0,0"
                repeatCount="indefinite"
            />
        </g>
        <g id="UX" filter="url(#filter2_d_1478_118628)">
            <path
                d="M798.692 75.2358H811.19V100.798C811.19 102.389 811.587 103.696 812.383 104.718C813.216 105.703 814.484 106.195 816.189 106.195C817.893 106.195 819.142 105.703 819.938 104.718C820.771 103.696 821.187 102.389 821.187 100.798V75.2358H833.685V101.935C833.685 104.775 833.211 107.18 832.265 109.149C831.356 111.08 830.087 112.652 828.459 113.864C826.83 115.038 824.956 115.89 822.835 116.42C820.752 116.988 818.537 117.272 816.189 117.272C813.841 117.272 811.606 116.988 809.485 116.42C807.403 115.89 805.547 115.038 803.919 113.864C802.29 112.652 801.002 111.08 800.056 109.149C799.147 107.18 798.692 104.775 798.692 101.935V75.2358Z"
                fill="white" />
            <path
                d="M867.205 75.2358H882.827L869.932 94.8906L883.679 115H868.058L862.036 103.866L855.844 115H840.223L854.311 94.8906L841.643 75.2358H857.264L862.15 84.836L867.205 75.2358Z"
                fill="white" />
            <path
                d="M798.692 74.0524H797.509V75.2358V101.935C797.509 104.895 797.982 107.48 798.981 109.645L798.987 109.657L798.993 109.67C800.018 111.76 801.423 113.482 803.212 114.813L803.219 114.819L803.226 114.824C804.982 116.089 806.973 117.001 809.186 117.565C811.412 118.16 813.747 118.456 816.189 118.456C818.628 118.456 820.945 118.161 823.134 117.565C825.383 117.001 827.393 116.091 829.151 114.824L829.158 114.819L829.165 114.813C830.957 113.48 832.346 111.753 833.333 109.657C834.375 107.488 834.868 104.899 834.868 101.935V75.2358V74.0524H833.685H821.187H820.004V75.2358V100.798C820.004 102.175 819.648 103.2 819.02 103.97L819.017 103.974C818.518 104.592 817.667 105.012 816.189 105.012C814.727 105.012 813.844 104.601 813.301 103.972C812.711 103.203 812.373 102.175 812.373 100.798V75.2358V74.0524H811.19H798.692ZM867.205 74.0524H866.491L866.158 74.6844L862.168 82.262L858.319 74.6991L857.99 74.0524H857.264H841.643H839.472L840.648 75.877L852.885 94.8631L839.253 114.321L837.949 116.183H840.223H855.844H856.54L856.879 115.575L862.022 106.327L867.017 115.563L867.352 116.183H868.058H883.679H885.922L884.656 114.332L871.356 94.8771L883.817 75.885L885.019 74.0524H882.827H867.205Z"
                stroke="black" stroke-width="2.36691" />
            <animateTransform
                attributeName="transform"
                attributeType="XML"
                type="translate"
                dur="20s"
                values="0,0;15,-10;0,0"
                repeatCount="indefinite"
            />

        </g>
    </g>
    <defs>
        <filter id="filter0_d_1478_118628" x="1075" y="25" width="92.6462" height="95.0136"
            filterUnits="userSpaceOnUse" color-interpolation-filters="sRGB">
            <feFlood flood-opacity="0" result="BackgroundImageFix" />
            <feColorMatrix in="SourceAlpha" type="matrix"
                values="0 0 0 0 0 0 0 0 0 0 0 0 0 0 0 0 0 0 127 0" result="hardAlpha" />
            <feOffset dx="2.36691" dy="4.73381" />
            <feComposite in2="hardAlpha" operator="out" />
            <feColorMatrix type="matrix" values="0 0 0 0 0 0 0 0 0 0 0 0 0 0 0 0 0 0 1 0" />
            <feBlend mode="normal" in2="BackgroundImageFix" result="effect1_dropShadow_1478_118628" />
            <feBlend mode="normal" in="SourceGraphic" in2="effect1_dropShadow_1478_118628"
                result="shape" />
        </filter>
        <filter id="filter1_d_1478_118628" x="885.609" y="144.424" width="332.601" height="58.1215"
            filterUnits="userSpaceOnUse" color-interpolation-filters="sRGB">
            <feFlood flood-opacity="0" result="BackgroundImageFix" />
            <feColorMatrix in="SourceAlpha" type="matrix"
                values="0 0 0 0 0 0 0 0 0 0 0 0 0 0 0 0 0 0 127 0" result="hardAlpha" />
            <feOffset dx="2.36691" dy="4.73381" />
            <feComposite in2="hardAlpha" operator="out" />
            <feColorMatrix type="matrix" values="0 0 0 0 0 0 0 0 0 0 0 0 0 0 0 0 0 0 1 0" />
            <feBlend mode="normal" in2="BackgroundImageFix" result="effect1_dropShadow_1478_118628" />
            <feBlend mode="normal" in="SourceGraphic" in2="effect1_dropShadow_1478_118628"
                result="shape" />
        </filter>
        <filter id="filter2_d_1478_118628" x="796.325" y="72.8691" width="94.2058" height="51.5038"
            filterUnits="userSpaceOnUse" color-interpolation-filters="sRGB">
            <feFlood flood-opacity="0" result="BackgroundImageFix" />
            <feColorMatrix in="SourceAlpha" type="matrix"
                values="0 0 0 0 0 0 0 0 0 0 0 0 0 0 0 0 0 0 127 0" result="hardAlpha" />
            <feOffset dx="2.36691" dy="4.73381" />
            <feComposite in2="hardAlpha" operator="out" />
            <feColorMatrix type="matrix" values="0 0 0 0 0 0 0 0 0 0 0 0 0 0 0 0 0 0 1 0" />
            <feBlend mode="normal" in2="BackgroundImageFix" result="effect1_dropShadow_1478_118628" />
            <feBlend mode="normal" in="SourceGraphic" in2="effect1_dropShadow_1478_118628"
                result="shape" />
        </filter>
        <clipPath id="clip0_1478_118628">
            <rect width="1680" height="240" rx="24" fill="white" />
        </clipPath>
    </defs>
</svg>