<svg width="24" height="24" viewBox="0 0 24 24" fill="none" xmlns="http://www.w3.org/2000/svg">
<path fill-rule="evenodd" clip-rule="evenodd" d="M3.65625 4.49027C3.65625 2.01036 5.66661 0 8.14653 0H15.8513C18.3312 0 20.3416 2.01036 20.3416 4.49027C20.3416 6.06056 19.5355 7.44258 18.3146 8.24516C19.5355 9.04773 20.3416 10.4297 20.3416 12C20.3416 14.48 18.3312 16.4903 15.8513 16.4903H15.7538C14.5912 16.4903 13.5318 16.0485 12.7343 15.3236V19.4609C12.7343 21.9739 10.6714 24 8.17075 24C5.697 24 3.65625 21.9957 3.65625 19.5097C3.65625 17.9394 4.46225 16.5575 5.68311 15.7549C4.46225 14.9523 3.65625 13.5703 3.65625 12C3.65625 10.4297 4.46229 9.04773 5.6832 8.24516C4.46229 7.44258 3.65625 6.06056 3.65625 4.49027ZM11.2635 11.9902C11.2635 11.9935 11.2635 11.9968 11.2635 12C11.2635 12.0033 11.2635 12.0066 11.2635 12.0098V15.0194H8.14653L8.13018 15.0194C6.4701 15.0106 5.12708 13.6622 5.12708 12C5.12708 10.3324 6.47893 8.9806 8.14653 8.9806H11.2635V11.9902ZM12.7343 12.0077C12.7385 13.6718 14.0887 15.0195 15.7538 15.0195H15.8513C17.5189 15.0195 18.8707 13.6676 18.8707 12C18.8707 10.3324 17.5189 8.9806 15.8513 8.9806H15.7538C14.0887 8.9806 12.7385 10.3283 12.7343 11.9924V12.0077ZM8.14653 16.4903L8.13017 16.4903C6.4701 16.4991 5.12708 17.8475 5.12708 19.5097C5.12708 21.1711 6.49699 22.5291 8.17075 22.5291C9.87144 22.5291 11.2635 21.1493 11.2635 19.4609V16.4903H8.14653ZM8.14653 1.47083H11.2635V7.50972H8.14653C6.47893 7.50972 5.12708 6.15787 5.12708 4.49027C5.12708 2.82268 6.47893 1.47083 8.14653 1.47083ZM12.7343 1.47083V7.50972H15.8513C17.5189 7.50972 18.8707 6.15787 18.8707 4.49027C18.8707 2.82268 17.5189 1.47083 15.8513 1.47083H12.7343Z" fill="#747474"/>
</svg>
